<svg xmlns="http://www.w3.org/2000/svg" xmlns:xlink="http://www.w3.org/1999/xlink" width="100" zoomAndPan="magnify" viewBox="0 0 75 74.999997" height="100" preserveAspectRatio="xMidYMid meet" version="1.0"><defs><clipPath id="a44b20e8de"><path d="M 1.425781 21 L 26 21 L 26 45 L 1.425781 45 Z M 1.425781 21 " clip-rule="nonzero"/></clipPath><clipPath id="325d6de948"><path d="M 48 21 L 72.675781 21 L 72.675781 45 L 48 45 Z M 48 21 " clip-rule="nonzero"/></clipPath><clipPath id="e6b27d17e7"><path d="M 12 45 L 62 45 L 62 72.675781 L 12 72.675781 Z M 12 45 " clip-rule="nonzero"/></clipPath><clipPath id="69622b283e"><path d="M 17 1.425781 L 57 1.425781 L 57 23 L 17 23 Z M 17 1.425781 " clip-rule="nonzero"/></clipPath></defs><path fill="#ffffff" d="M 20.234375 25.886719 C 20.96875 27.109375 22.175781 27.96875 23.535156 28.296875 L 23.535156 25.421875 L 18.847656 22.296875 C 19.101562 23.558594 19.570312 24.773438 20.234375 25.886719 Z M 20.234375 25.886719 " fill-opacity="1" fill-rule="nonzero"/><path fill="#ffffff" d="M 48.105469 29.679688 L 48.105469 18.625 L 42.980469 18.625 C 41.097656 18.625 39.25 19.386719 37.917969 20.71875 L 37.050781 21.589844 L 36.179688 20.71875 C 34.847656 19.386719 33.003906 18.625 31.117188 18.625 L 25.992188 18.625 L 25.992188 29.679688 C 25.992188 35.777344 30.953125 40.734375 37.050781 40.734375 C 43.148438 40.734375 48.105469 35.777344 48.105469 29.679688 Z M 29.449219 26.613281 C 28.535156 25.78125 28.21875 24.554688 28.625 23.4375 L 29.039062 22.308594 L 33.363281 24.273438 L 33.363281 25.136719 C 33.363281 26.289062 32.335938 27.222656 31.070312 27.222656 C 30.464844 27.222656 29.878906 27.003906 29.449219 26.613281 Z M 37.050781 37.050781 C 34.339844 37.050781 32.136719 34.847656 32.136719 32.136719 L 34.59375 32.136719 C 34.59375 33.492188 35.695312 34.59375 37.050781 34.59375 C 38.40625 34.59375 39.507812 33.492188 39.507812 32.136719 L 41.964844 32.136719 C 41.964844 34.847656 39.761719 37.050781 37.050781 37.050781 Z M 43.027344 27.222656 C 41.761719 27.222656 40.734375 26.289062 40.734375 25.136719 L 40.734375 24.273438 L 45.058594 22.308594 L 45.472656 23.4375 C 45.882812 24.554688 45.5625 25.78125 44.648438 26.613281 C 44.21875 27.003906 43.636719 27.222656 43.027344 27.222656 Z M 43.027344 27.222656 " fill-opacity="1" fill-rule="nonzero"/><g clip-path="url(#a44b20e8de)"><path fill="#ffffff" d="M 23.714844 44.363281 L 25.511719 44 L 23.796875 41.257812 C 21.46875 37.53125 18.117188 34.621094 14.101562 32.835938 C 10.902344 31.414062 8.101562 29.367188 5.777344 26.75 L 1.453125 21.886719 C 1.640625 25.449219 2.78125 28.878906 4.769531 31.867188 C 5.796875 33.40625 6.339844 35.199219 6.339844 37.050781 C 6.339844 38.59375 5.941406 40.089844 5.21875 41.4375 C 11.539062 40.230469 18.074219 41.269531 23.714844 44.363281 Z M 23.714844 44.363281 " fill-opacity="1" fill-rule="nonzero"/></g><path fill="#ffffff" d="M 50.5625 28.296875 C 51.925781 27.96875 53.128906 27.109375 53.863281 25.886719 C 54.53125 24.773438 55 23.558594 55.253906 22.296875 L 50.5625 25.421875 Z M 50.5625 28.296875 " fill-opacity="1" fill-rule="nonzero"/><path fill="#ffffff" d="M 40.472656 51.335938 C 42.25 49.273438 43.023438 45.851562 43.191406 44.347656 L 43.191406 41.699219 C 41.347656 42.648438 39.261719 43.191406 37.050781 43.191406 C 34.835938 43.191406 32.753906 42.648438 30.90625 41.699219 L 30.90625 44.34375 C 31.082031 45.847656 31.859375 49.269531 33.628906 51.332031 C 34.132812 50.160156 35.296875 49.335938 36.652344 49.335938 L 37.445312 49.335938 C 38.804688 49.335938 39.96875 50.160156 40.472656 51.335938 Z M 40.472656 51.335938 " fill-opacity="1" fill-rule="nonzero"/><path fill="#ffffff" d="M 36.652344 51.792969 C 36.195312 51.792969 35.820312 52.164062 35.820312 52.621094 C 35.820312 52.730469 35.84375 52.832031 35.882812 52.933594 L 37.050781 55.855469 L 38.21875 52.933594 C 38.257812 52.832031 38.277344 52.730469 38.277344 52.621094 C 38.277344 52.164062 37.90625 51.792969 37.445312 51.792969 Z M 36.652344 51.792969 " fill-opacity="1" fill-rule="nonzero"/><path fill="#ffffff" d="M 54.445312 45.171875 L 57.164062 45.714844 C 59.691406 46.222656 61.777344 47.824219 62.976562 49.964844 C 64.332031 47.597656 66.144531 45.503906 68.296875 43.828125 C 63.625 42.964844 58.832031 43.445312 54.445312 45.171875 Z M 54.445312 45.171875 " fill-opacity="1" fill-rule="nonzero"/><g clip-path="url(#325d6de948)"><path fill="#ffffff" d="M 72.648438 21.886719 L 68.324219 26.75 C 66 29.367188 63.199219 31.414062 60 32.835938 C 55.984375 34.621094 52.632812 37.53125 50.304688 41.257812 L 48.589844 44 L 50.386719 44.363281 C 56.023438 41.269531 62.558594 40.230469 68.882812 41.4375 C 68.160156 40.089844 67.761719 38.59375 67.761719 37.050781 C 67.761719 35.199219 68.304688 33.40625 69.328125 31.867188 C 71.320312 28.882812 72.457031 25.449219 72.648438 21.886719 Z M 72.648438 21.886719 " fill-opacity="1" fill-rule="nonzero"/></g><g clip-path="url(#e6b27d17e7)"><path fill="#ffffff" d="M 56.679688 48.125 L 45.429688 45.875 C 44.972656 48.183594 43.636719 52.855469 40.15625 54.699219 L 37.050781 62.46875 L 33.941406 54.699219 C 30.460938 52.851562 29.125 48.183594 28.671875 45.875 L 17.417969 48.125 C 14.558594 48.699219 12.480469 51.230469 12.480469 54.148438 L 12.480469 72.675781 L 18.625 72.675781 L 18.625 55.476562 L 21.082031 55.476562 L 21.082031 62.558594 C 21.082031 63.363281 21.269531 64.167969 21.628906 64.886719 C 22.519531 66.660156 24.300781 67.761719 26.285156 67.761719 L 28.664062 67.761719 C 30.546875 67.761719 32.390625 66.996094 33.722656 65.664062 L 35.460938 67.402344 C 33.671875 69.191406 31.191406 70.21875 28.664062 70.21875 L 26.285156 70.21875 C 24.304688 70.21875 22.46875 69.457031 21.082031 68.164062 L 21.082031 72.675781 L 53.019531 72.675781 L 53.019531 68.164062 C 51.628906 69.457031 49.796875 70.21875 47.816406 70.21875 L 45.4375 70.21875 C 42.90625 70.21875 40.429688 69.191406 38.636719 67.402344 L 40.375 65.664062 C 41.707031 66.996094 43.554688 67.761719 45.4375 67.761719 L 47.816406 67.761719 C 49.800781 67.761719 51.582031 66.660156 52.46875 64.886719 C 52.828125 64.167969 53.019531 63.363281 53.019531 62.558594 L 53.019531 55.476562 L 55.476562 55.476562 L 55.476562 72.675781 L 61.617188 72.675781 L 61.617188 54.148438 C 61.617188 51.230469 59.542969 48.699219 56.679688 48.125 Z M 28.449219 65.304688 L 25.992188 65.304688 L 25.992188 62.847656 L 28.449219 62.847656 Z M 48.105469 65.304688 L 45.648438 65.304688 L 45.648438 62.847656 L 48.105469 62.847656 Z M 48.105469 65.304688 " fill-opacity="1" fill-rule="nonzero"/></g><path fill="#ffffff" d="M 16.9375 45.714844 L 19.652344 45.171875 C 15.269531 43.445312 10.476562 42.960938 5.800781 43.832031 C 7.953125 45.503906 9.765625 47.597656 11.125 49.964844 C 12.320312 47.824219 14.40625 46.222656 16.9375 45.714844 Z M 16.9375 45.714844 " fill-opacity="1" fill-rule="nonzero"/><g clip-path="url(#69622b283e)"><path fill="#ffffff" d="M 22.308594 10.023438 C 22.703125 10.15625 23.09375 10.273438 23.488281 10.394531 C 22.730469 12.167969 22.308594 14.117188 22.308594 16.167969 L 22.308594 21.652344 L 23.535156 22.472656 L 23.535156 16.167969 L 31.117188 16.167969 C 33.261719 16.167969 35.367188 16.902344 37.050781 18.214844 C 38.730469 16.902344 40.835938 16.167969 42.980469 16.167969 L 50.5625 16.167969 L 50.5625 22.472656 L 51.792969 21.652344 L 51.792969 16.167969 C 51.792969 14.117188 51.371094 12.167969 50.609375 10.394531 C 51.003906 10.273438 51.398438 10.15625 51.792969 10.023438 C 54.800781 8.519531 56.707031 5.441406 56.707031 2.074219 L 56.707031 1.425781 C 54.300781 3.027344 51.476562 3.882812 48.589844 3.882812 L 45.179688 3.882812 C 42.847656 2.332031 40.054688 1.425781 37.050781 1.425781 C 34.046875 1.425781 31.25 2.332031 28.917969 3.882812 L 25.507812 3.882812 C 22.621094 3.882812 19.796875 3.027344 17.394531 1.425781 L 17.394531 2.074219 C 17.394531 5.441406 19.296875 8.519531 22.308594 10.023438 Z M 22.308594 10.023438 " fill-opacity="1" fill-rule="nonzero"/></g></svg>